<?xml version="1.0" standalone="no"?>
<svg version="1.0" xmlns="http://www.w3.org/2000/svg"
 viewBox="0 0 50.000000 50.000000"
 preserveAspectRatio="xMidYMid meet">

<g transform="translate(0.000000,50.000000) scale(0.100000,-0.100000)"
fill="#000000" stroke="none">
<path d="M7 474 c-4 -4 -7 -108 -7 -231 l0 -223 250 0 250 0 -2 228 -3 227
-241 3 c-132 1 -243 -1 -247 -4z m473 -39 l0 -25 -230 0 -230 0 0 25 0 25 230
0 230 0 0 -25z m0 -220 l0 -175 -230 0 -230 0 0 175 0 175 230 0 230 0 0 -175z"/>
<path d="M90 304 c-32 -38 -2 -114 45 -114 24 0 63 36 51 48 -4 4 -13 -1 -20
-11 -16 -21 -52 -22 -60 -1 -21 54 12 96 53 68 26 -19 40 -11 21 11 -16 20
-74 19 -90 -1z"/>
<path d="M250 313 c0 -18 46 -123 54 -123 4 0 6 6 4 13 -3 6 -13 36 -23 65
-11 28 -23 52 -27 52 -4 0 -8 -3 -8 -7z"/>
<path d="M210 270 c0 -5 7 -10 15 -10 8 0 15 5 15 10 0 6 -7 10 -15 10 -8 0
-15 -4 -15 -10z"/>
<path d="M210 205 c0 -9 5 -15 11 -13 6 2 11 8 11 13 0 5 -5 11 -11 13 -6 2
-11 -4 -11 -13z"/>
</g>
</svg>
